<mxfile host="app.diagrams.net" modified="2022-10-22T13:41:13.373Z" agent="5.0 (Windows NT 10.0; Win64; x64) AppleWebKit/537.36 (KHTML, like Gecko) Chrome/104.0.5112.124 YaBrowser/22.9.3.886 Yowser/2.5 Safari/537.36" etag="Y33xXwtP4sSqXDpYblfO" version="20.4.0" type="github">
  <diagram id="OS7P-B7sVEWqs3JCQZ2V" name="Страница 1">
    <mxGraphModel dx="1422" dy="789" grid="1" gridSize="10" guides="1" tooltips="1" connect="1" arrows="1" fold="1" page="1" pageScale="1" pageWidth="1169" pageHeight="827" math="0" shadow="0">
      <root>
        <mxCell id="0" />
        <mxCell id="1" parent="0" />
        <mxCell id="ohoN5WI_4kR045ZaDAsY-43" style="edgeStyle=orthogonalEdgeStyle;rounded=0;orthogonalLoop=1;jettySize=auto;html=1;entryX=-0.015;entryY=0.1;entryDx=0;entryDy=0;entryPerimeter=0;" edge="1" parent="1" source="ohoN5WI_4kR045ZaDAsY-1" target="ohoN5WI_4kR045ZaDAsY-3">
          <mxGeometry relative="1" as="geometry">
            <Array as="points">
              <mxPoint x="810" y="348" />
              <mxPoint x="810" y="348" />
            </Array>
          </mxGeometry>
        </mxCell>
        <mxCell id="ohoN5WI_4kR045ZaDAsY-45" style="edgeStyle=orthogonalEdgeStyle;rounded=0;orthogonalLoop=1;jettySize=auto;html=1;entryX=0;entryY=0.5;entryDx=0;entryDy=0;" edge="1" parent="1" source="ohoN5WI_4kR045ZaDAsY-1" target="ohoN5WI_4kR045ZaDAsY-2">
          <mxGeometry relative="1" as="geometry">
            <Array as="points">
              <mxPoint x="790" y="280" />
              <mxPoint x="790" y="280" />
            </Array>
          </mxGeometry>
        </mxCell>
        <mxCell id="ohoN5WI_4kR045ZaDAsY-1" value="LoginServer" style="swimlane;" vertex="1" parent="1">
          <mxGeometry x="630" y="280" width="110" height="80" as="geometry" />
        </mxCell>
        <mxCell id="ohoN5WI_4kR045ZaDAsY-2" value="GameServer 1" style="swimlane;" vertex="1" parent="1">
          <mxGeometry x="910" y="240" width="200" height="80" as="geometry" />
        </mxCell>
        <mxCell id="ohoN5WI_4kR045ZaDAsY-4" value="Game-Client" style="swimlane;" vertex="1" parent="1">
          <mxGeometry x="40" y="280" width="120" height="80" as="geometry" />
        </mxCell>
        <mxCell id="ohoN5WI_4kR045ZaDAsY-5" value="Router" style="swimlane;" vertex="1" parent="1">
          <mxGeometry x="280" y="280" width="90" height="80" as="geometry" />
        </mxCell>
        <mxCell id="ohoN5WI_4kR045ZaDAsY-14" value="95.31.39.47" style="text;html=1;align=center;verticalAlign=middle;resizable=0;points=[];autosize=1;strokeColor=none;fillColor=none;" vertex="1" parent="ohoN5WI_4kR045ZaDAsY-5">
          <mxGeometry y="25" width="90" height="30" as="geometry" />
        </mxCell>
        <mxCell id="ohoN5WI_4kR045ZaDAsY-6" value="" style="rounded=0;whiteSpace=wrap;html=1;" vertex="1" parent="1">
          <mxGeometry x="200" y="80" width="40" height="520" as="geometry" />
        </mxCell>
        <mxCell id="ohoN5WI_4kR045ZaDAsY-7" value="Switch" style="swimlane;" vertex="1" parent="1">
          <mxGeometry x="400" y="280" width="90" height="80" as="geometry" />
        </mxCell>
        <mxCell id="ohoN5WI_4kR045ZaDAsY-8" value="Server HP DL380p Gen8" style="swimlane;" vertex="1" parent="1">
          <mxGeometry x="520" y="120" width="640" height="600" as="geometry" />
        </mxCell>
        <mxCell id="ohoN5WI_4kR045ZaDAsY-11" value="HyperVisor Proxmox 7 on Debian" style="swimlane;" vertex="1" parent="ohoN5WI_4kR045ZaDAsY-8">
          <mxGeometry x="40" y="40" width="570" height="540" as="geometry" />
        </mxCell>
        <mxCell id="ohoN5WI_4kR045ZaDAsY-12" value="VM UbuntuServer 22.04 (WoW) 10.10.120.33" style="swimlane;" vertex="1" parent="ohoN5WI_4kR045ZaDAsY-11">
          <mxGeometry x="30" y="40" width="530" height="230" as="geometry" />
        </mxCell>
        <mxCell id="ohoN5WI_4kR045ZaDAsY-16" value="10.10.120.33" style="text;html=1;align=center;verticalAlign=middle;resizable=0;points=[];autosize=1;strokeColor=none;fillColor=none;" vertex="1" parent="ohoN5WI_4kR045ZaDAsY-12">
          <mxGeometry x="40" y="105" width="90" height="30" as="geometry" />
        </mxCell>
        <mxCell id="ohoN5WI_4kR045ZaDAsY-19" value="8085" style="text;html=1;align=center;verticalAlign=middle;resizable=0;points=[];autosize=1;strokeColor=none;fillColor=none;" vertex="1" parent="ohoN5WI_4kR045ZaDAsY-12">
          <mxGeometry x="320" y="90" width="50" height="30" as="geometry" />
        </mxCell>
        <mxCell id="ohoN5WI_4kR045ZaDAsY-44" style="edgeStyle=orthogonalEdgeStyle;rounded=0;orthogonalLoop=1;jettySize=auto;html=1;entryX=0.66;entryY=0.967;entryDx=0;entryDy=0;entryPerimeter=0;" edge="1" parent="ohoN5WI_4kR045ZaDAsY-12" source="ohoN5WI_4kR045ZaDAsY-3" target="ohoN5WI_4kR045ZaDAsY-38">
          <mxGeometry relative="1" as="geometry" />
        </mxCell>
        <mxCell id="ohoN5WI_4kR045ZaDAsY-3" value="GameServer 2" style="swimlane;" vertex="1" parent="ohoN5WI_4kR045ZaDAsY-12">
          <mxGeometry x="320" y="140" width="200" height="80" as="geometry" />
        </mxCell>
        <mxCell id="ohoN5WI_4kR045ZaDAsY-20" value="10.10.120.33" style="text;html=1;align=center;verticalAlign=middle;resizable=0;points=[];autosize=1;strokeColor=none;fillColor=none;" vertex="1" parent="ohoN5WI_4kR045ZaDAsY-3">
          <mxGeometry x="55" y="20" width="90" height="30" as="geometry" />
        </mxCell>
        <mxCell id="ohoN5WI_4kR045ZaDAsY-23" value="8086" style="text;html=1;align=center;verticalAlign=middle;resizable=0;points=[];autosize=1;strokeColor=none;fillColor=none;" vertex="1" parent="ohoN5WI_4kR045ZaDAsY-3">
          <mxGeometry y="44" width="50" height="30" as="geometry" />
        </mxCell>
        <mxCell id="ohoN5WI_4kR045ZaDAsY-22" value="10.10.120.33" style="text;html=1;align=center;verticalAlign=middle;resizable=0;points=[];autosize=1;strokeColor=none;fillColor=none;" vertex="1" parent="ohoN5WI_4kR045ZaDAsY-12">
          <mxGeometry x="360" y="60" width="90" height="30" as="geometry" />
        </mxCell>
        <mxCell id="ohoN5WI_4kR045ZaDAsY-37" value="3724" style="text;html=1;align=center;verticalAlign=middle;resizable=0;points=[];autosize=1;strokeColor=none;fillColor=none;" vertex="1" parent="ohoN5WI_4kR045ZaDAsY-12">
          <mxGeometry x="40" y="130" width="50" height="30" as="geometry" />
        </mxCell>
        <mxCell id="ohoN5WI_4kR045ZaDAsY-38" value="9014" style="text;html=1;align=center;verticalAlign=middle;resizable=0;points=[];autosize=1;strokeColor=none;fillColor=none;" vertex="1" parent="ohoN5WI_4kR045ZaDAsY-12">
          <mxGeometry x="100" y="130" width="50" height="30" as="geometry" />
        </mxCell>
        <mxCell id="ohoN5WI_4kR045ZaDAsY-13" value="VM UbuntuServer 22.04 (Lineage II) 10.10.120.88" style="swimlane;" vertex="1" parent="ohoN5WI_4kR045ZaDAsY-11">
          <mxGeometry x="30" y="290" width="530" height="230" as="geometry" />
        </mxCell>
        <mxCell id="ohoN5WI_4kR045ZaDAsY-24" value="LoginServer" style="swimlane;" vertex="1" parent="ohoN5WI_4kR045ZaDAsY-13">
          <mxGeometry x="40" y="80" width="110" height="80" as="geometry" />
        </mxCell>
        <mxCell id="ohoN5WI_4kR045ZaDAsY-29" value="10.10.120.88" style="text;html=1;align=center;verticalAlign=middle;resizable=0;points=[];autosize=1;strokeColor=none;fillColor=none;" vertex="1" parent="ohoN5WI_4kR045ZaDAsY-24">
          <mxGeometry y="30" width="90" height="30" as="geometry" />
        </mxCell>
        <mxCell id="ohoN5WI_4kR045ZaDAsY-30" value="2106" style="text;html=1;align=center;verticalAlign=middle;resizable=0;points=[];autosize=1;strokeColor=none;fillColor=none;" vertex="1" parent="ohoN5WI_4kR045ZaDAsY-24">
          <mxGeometry y="50" width="50" height="30" as="geometry" />
        </mxCell>
        <mxCell id="ohoN5WI_4kR045ZaDAsY-39" value="9014" style="text;html=1;align=center;verticalAlign=middle;resizable=0;points=[];autosize=1;strokeColor=none;fillColor=none;" vertex="1" parent="ohoN5WI_4kR045ZaDAsY-24">
          <mxGeometry x="59" y="50" width="50" height="30" as="geometry" />
        </mxCell>
        <mxCell id="ohoN5WI_4kR045ZaDAsY-25" value="GameServer 1" style="swimlane;" vertex="1" parent="ohoN5WI_4kR045ZaDAsY-13">
          <mxGeometry x="320" y="40" width="200" height="80" as="geometry" />
        </mxCell>
        <mxCell id="ohoN5WI_4kR045ZaDAsY-31" value="10.10.120.88" style="text;html=1;align=center;verticalAlign=middle;resizable=0;points=[];autosize=1;strokeColor=none;fillColor=none;" vertex="1" parent="ohoN5WI_4kR045ZaDAsY-25">
          <mxGeometry x="55" y="20" width="90" height="30" as="geometry" />
        </mxCell>
        <mxCell id="ohoN5WI_4kR045ZaDAsY-32" value="8805" style="text;html=1;align=center;verticalAlign=middle;resizable=0;points=[];autosize=1;strokeColor=none;fillColor=none;" vertex="1" parent="ohoN5WI_4kR045ZaDAsY-25">
          <mxGeometry x="5" y="40" width="50" height="30" as="geometry" />
        </mxCell>
        <mxCell id="ohoN5WI_4kR045ZaDAsY-26" value="GameServer 2" style="swimlane;" vertex="1" parent="ohoN5WI_4kR045ZaDAsY-13">
          <mxGeometry x="320" y="140" width="200" height="80" as="geometry" />
        </mxCell>
        <mxCell id="ohoN5WI_4kR045ZaDAsY-27" value="10.10.120.88" style="text;html=1;align=center;verticalAlign=middle;resizable=0;points=[];autosize=1;strokeColor=none;fillColor=none;" vertex="1" parent="ohoN5WI_4kR045ZaDAsY-26">
          <mxGeometry x="60" y="20" width="90" height="30" as="geometry" />
        </mxCell>
        <mxCell id="ohoN5WI_4kR045ZaDAsY-28" value="8806" style="text;html=1;align=center;verticalAlign=middle;resizable=0;points=[];autosize=1;strokeColor=none;fillColor=none;" vertex="1" parent="ohoN5WI_4kR045ZaDAsY-26">
          <mxGeometry x="10" y="40" width="50" height="30" as="geometry" />
        </mxCell>
        <mxCell id="ohoN5WI_4kR045ZaDAsY-40" style="edgeStyle=orthogonalEdgeStyle;rounded=0;orthogonalLoop=1;jettySize=auto;html=1;entryX=0;entryY=0.5;entryDx=0;entryDy=0;entryPerimeter=0;" edge="1" parent="1" source="ohoN5WI_4kR045ZaDAsY-15" target="ohoN5WI_4kR045ZaDAsY-16">
          <mxGeometry relative="1" as="geometry" />
        </mxCell>
        <mxCell id="ohoN5WI_4kR045ZaDAsY-15" value="VLAN 120" style="text;html=1;align=center;verticalAlign=middle;resizable=0;points=[];autosize=1;strokeColor=none;fillColor=none;" vertex="1" parent="1">
          <mxGeometry x="410" y="305" width="80" height="30" as="geometry" />
        </mxCell>
        <mxCell id="ohoN5WI_4kR045ZaDAsY-46" style="edgeStyle=orthogonalEdgeStyle;rounded=0;orthogonalLoop=1;jettySize=auto;html=1;" edge="1" parent="1" source="ohoN5WI_4kR045ZaDAsY-19">
          <mxGeometry relative="1" as="geometry">
            <mxPoint x="740" y="305" as="targetPoint" />
          </mxGeometry>
        </mxCell>
      </root>
    </mxGraphModel>
  </diagram>
</mxfile>
